<svg width="640" height="640" viewBox="0 0 640 640" fill="none" xmlns="http://www.w3.org/2000/svg">
  <defs>
    <linearGradient id="bgGradient" x1="80" y1="40" x2="560" y2="600" gradientUnits="userSpaceOnUse">
      <stop stop-color="#0F8BFF" />
      <stop offset="0.45" stop-color="#1DD1A1" />
      <stop offset="1" stop-color="#FF8551" />
    </linearGradient>
    <linearGradient id="shapeGradient" x1="120" y1="160" x2="520" y2="480" gradientUnits="userSpaceOnUse">
      <stop stop-color="rgba(255,255,255,0.95)" />
      <stop offset="1" stop-color="rgba(255,255,255,0.35)" />
    </linearGradient>
    <radialGradient id="lightGlow" cx="0" cy="0" r="1" gradientUnits="userSpaceOnUse" gradientTransform="translate(320 280) rotate(90) scale(320)">
      <stop stop-color="rgba(255,255,255,0.7)" />
      <stop offset="1" stop-color="rgba(255,255,255,0)" />
    </radialGradient>
  </defs>
  <rect width="640" height="640" rx="48" fill="url(#bgGradient)" />
  <circle cx="320" cy="280" r="260" fill="url(#lightGlow)" />
  <path d="M144 472C172 400 212 360 276 360C340 360 368 332 384 284C400 236 444 216 488 216C520 216 548 228 568 260" stroke="rgba(255,255,255,0.8)" stroke-width="16" stroke-linecap="round" stroke-linejoin="round" />
  <path d="M238 222C255 204 283 204 300 222C317 240 317 268 300 286C283 304 255 304 238 286C221 268 221 240 238 222Z" fill="rgba(255,255,255,0.85)" />
  <path d="M212 432L288 328L332 360L388 300L452 356L504 312L536 348" stroke="url(#shapeGradient)" stroke-width="34" stroke-linecap="round" stroke-linejoin="round" />
  <path d="M184 452C204 392 248 360 304 360C360 360 396 330 412 272" stroke="rgba(255,255,255,0.6)" stroke-width="18" stroke-linecap="round" />
  <path d="M328 492C328 463 352 440 381 440H462C491 440 515 463 515 492C515 521 491 544 462 544H381C352 544 328 521 328 492Z" fill="rgba(15,23,42,0.22)" />
  <path d="M308 324L360 284L436 336" stroke="rgba(255,255,255,0.9)" stroke-width="14" stroke-linecap="round" stroke-linejoin="round" />
  <path d="M188 500C188 470 212 446 242 446H300" stroke="rgba(255,255,255,0.55)" stroke-width="18" stroke-linecap="round" />
</svg>
